<?xml version="1.0" encoding="utf-8"?>
<!-- Generator: Adobe Illustrator 16.0.0, SVG Export Plug-In . SVG Version: 6.00 Build 0)  -->
<!DOCTYPE svg PUBLIC "-//W3C//DTD SVG 1.1//EN" "http://www.w3.org/Graphics/SVG/1.1/DTD/svg11.dtd">
<svg version="1.1" id="Layer_1" xmlns="http://www.w3.org/2000/svg" xmlns:xlink="http://www.w3.org/1999/xlink" x="0px" y="0px"
	 width="50px" height="64px" viewBox="0 0 194.621 250" enable-background="new 0 0 194.621 250" xml:space="preserve">
<polygon fill="#FFFFFF" points="186.356,203.312 65.893,246.58 6.508,81.231 126.976,37.964 "/>
<path class="checklisticon_elements" d="M119.278,34.587l-13.346,4.862l-0.673-1.85c-2.083-4.478-5.639-6.027-10.408-4.738l-21.795,7.943l-1.639-4.494
	c0.639-1.13,1.274-2.259,1.861-3.525C75.75,27.25,76,21.771,73.979,16.22c-2.07-5.68-5.833-9.845-11.239-12.364
	c-5.409-2.52-10.886-2.768-16.567-0.701c-5.679,2.066-9.715,5.784-12.234,11.19c-2.651,5.455-2.852,11.066-0.785,16.746
	c2.021,5.546,5.735,9.584,11.323,12.188c0.899,0.417,1.756,0.704,2.655,1.129l1.879,5.15l-22.062,8.034
	c-4.482,2.083-5.944,5.459-4.657,10.229l0.676,1.851L8.565,74.911c-5.946,2.171-7.792,6.136-5.627,12.08l56.498,155.104
	c2.163,5.942,6.128,7.793,12.074,5.623l110.712-40.324c5.943-2.167,7.786-6.127,5.624-12.075l-56.498-155.1
	C129.187,34.271,125.222,32.424,119.278,34.587L119.278,34.587z M108.336,46.058l13.345-4.862c1.458-0.528,2.54-0.028,3.068,1.426
	l48.021,131.849c-5.976,7.422-12.961,12.056-21.099,13.97c0.416,10.178-3.998,19.418-13.209,27.408l-69.36,25.268
	c-1.452,0.526-2.533,0.025-3.062-1.43L9.542,84.588c-0.527-1.458-0.022-2.54,1.43-3.069l14.398-5.246l2.118,5.815l82.969-30.219
	L108.336,46.058L108.336,46.058z M65.919,19.16c1.251,3.437,1.121,6.772-0.391,10.021c-1.646,3.288-4.117,5.535-7.417,6.736
	c-3.305,1.206-6.645,1.073-10.021-0.388c-3.376-1.462-5.623-3.938-6.875-7.374c-1.251-3.437-1.121-6.777,0.571-9.933
	c1.596-3.429,4.067-5.675,7.374-6.873c3.302-1.206,6.639-1.073,10.065,0.521C62.42,13.248,64.669,15.724,65.919,19.16L65.919,19.16z
	"/>
<polygon class="checklisticon_elements" points="128.906,102.514 126.398,95.646 65.939,117.67 68.442,124.54 128.906,102.514 "/>
<polygon fill="#565A5D" points="114.739,63.625 112.236,56.751 29.268,86.975 31.773,93.848 114.739,63.625 "/>
<polygon class="checklisticon_elements" points="75.696,144.452 78.199,151.321 138.663,129.301 136.155,122.428 75.696,144.452 "/>
<polygon class="checklisticon_elements" points="148.844,157.261 146.345,150.392 85.88,172.412 88.382,179.285 148.844,157.261 "/>
<g>
	<path class="checklisticon_elements" d="M71.196,185.546l-5.996,2.182l-8.726-5.215l3.697-3.384l6.453,3.329l0.046-0.021l0.012-20.006l4.424-1.614L71.196,185.546z
		"/>
</g>
<g>
	<path class="checklisticon_elements" d="M61.011,157.586l-5.994,2.182l-8.728-5.215l3.697-3.384l6.455,3.333l0.046-0.017l0.01-20.018l4.425-1.61L61.011,157.586z"
		/>
</g>
<g>
	<path class="checklisticon_elements" d="M51.254,130.799l-5.994,2.184l-8.727-5.211l3.699-3.385l6.452,3.328l0.046-0.016l0.013-20.01l4.426-1.61L51.254,130.799z"
		/>
</g>
</svg>
