<svg version="1.1" id="Layer_1" xmlns="http://www.w3.org/2000/svg" xmlns:xlink="http://www.w3.org/1999/xlink" x="0px" y="0px"
	 class="svg_intro_icon" width="70px" height="58px" viewBox="0 0 256 211.491" enable-background="new 0 0 256 211.491" xml:space="preserve">
<path fill="#FFFFFF" d="M0.657,53.324L40.05,208.52c0,0,12.41-15.949,47.343-24.817c34.933-8.866,53.729-2.056,53.729-2.056
	s15.419-16.105,41.764-22.791c26.344-6.688,55.593-1.922,55.593-1.922L199.667,4.029c0,0-25.958-6.211-55.738,1.348
	c-29.78,7.559-40.898,23.792-40.898,23.792s-24.242-6.647-52.875,0.62C21.52,37.056,0.657,53.324,0.657,53.324z" />
<g>
	<path class="introicon_elements" d="M223.312,93.881c-4.882,0-9.634-1.354-14.122-4.025c-6.899-4.106-11.36-9.982-13.26-17.467
		c-0.717-2.827-0.944-5.64-0.689-8.568l-8.531-1.108c-0.6,3.764-1.905,7.35-3.886,10.674c-4.031,6.772-9.922,11.183-17.508,13.108
		c-2.345,0.595-4.69,0.897-6.974,0.897c-4.908,0-9.74-1.395-14.363-4.146c-6.9-4.105-11.362-9.983-13.263-17.468
		c-1.848-7.284-0.703-14.477,3.404-21.377c4.108-6.9,9.884-11.336,17.165-13.185c2.342-0.595,4.699-0.896,7.007-0.896
		c5.027,0,9.965,1.42,14.674,4.221c5.528,3.29,9.669,7.955,12.006,13.518l14.63,2.077c3.946-6.325,9.627-10.465,16.896-12.311
		c2.343-0.595,4.7-0.896,7.008-0.896c5.03,0,9.967,1.419,14.671,4.219c6.646,3.955,10.98,9.757,12.882,17.246
		c1.91,7.533,0.896,14.796-3.015,21.588c-4.12,6.703-10.021,11.059-17.552,12.971c-2.424,0.615-4.839,0.927-7.178,0.927
		C223.313,93.881,223.313,93.881,223.312,93.881z M209.916,61.272c-0.843,2.425-0.931,4.993-0.26,7.633
		c0.962,3.789,3.246,6.849,6.604,8.85c2.229,1.324,4.507,1.969,6.962,1.969c1.219,0,2.493-0.167,3.787-0.495
		c3.943-1.001,6.934-3.174,8.888-6.458c1.954-3.281,2.438-6.945,1.436-10.892c-0.99-3.902-3.091-6.762-6.419-8.742
		c-2.291-1.362-4.742-2.053-7.285-2.053c-1.2,0-2.427,0.157-3.646,0.466c-3.728,0.946-6.646,3.141-8.676,6.524
		c-0.192,0.422-0.393,0.814-0.582,1.184c-0.188,0.368-0.366,0.712-0.51,1.048C210.126,60.695,210.049,61.006,209.916,61.272z
		 M158.382,44.479c-1.187,0-2.401,0.156-3.611,0.463c-3.79,0.962-6.49,3.079-8.498,6.662c-2.218,3.52-2.791,6.903-1.828,10.692
		c0.975,3.843,3.262,6.859,6.8,8.965c2.256,1.343,4.514,1.996,6.903,1.996c1.178,0,2.418-0.164,3.687-0.485
		c3.907-0.992,6.955-3.185,9.058-6.517c1.782-3.421,2.333-6.717,1.644-10.007l-0.261-1.022c-0.975-3.844-3.003-6.572-6.38-8.582
		C163.482,45.207,160.955,44.479,158.382,44.479z" />
	<path fill="#FFFFFF" d="M158.293,31.321c4.871,0,9.611,1.374,14.162,4.081c5.494,3.269,9.557,7.866,11.809,13.567l15.851,2.25
		c3.834-6.442,9.376-10.583,16.63-12.424c2.277-0.578,4.533-0.865,6.762-0.865c4.87,0,9.611,1.372,14.159,4.078
		c6.441,3.833,10.582,9.378,12.424,16.633c1.84,7.252,0.884,14.252-2.911,20.843c-3.983,6.479-9.68,10.66-16.932,12.5
		c-2.354,0.598-4.665,0.896-6.934,0.896c-4.722,0-9.259-1.295-13.61-3.884c-6.629-3.945-10.962-9.603-12.802-16.854
		c-0.806-3.174-0.93-6.202-0.563-9.188l-10.478-1.361c-0.479,3.821-1.75,7.682-3.895,11.281c-3.946,6.63-9.638,10.809-16.895,12.651
		c-2.269,0.576-4.51,0.866-6.728,0.866c-4.725,0-9.339-1.319-13.852-4.005c-6.631-3.945-10.964-9.603-12.805-16.854
		c-1.803-7.104-0.652-13.989,3.294-20.62c3.947-6.63,9.449-10.924,16.552-12.727C153.81,31.608,156.064,31.321,158.293,31.321
		 M158.147,74.256c1.274,0,2.581-0.173,3.933-0.516c4.081-1.036,7.361-3.314,9.657-6.952c1.84-3.524,2.545-7.082,1.776-10.746
		l-0.079-0.302c-0.038-0.153-0.076-0.301-0.189-0.756c-1.035-4.08-3.241-7.059-6.839-9.2c-2.589-1.541-5.278-2.305-8.024-2.305
		c-1.275,0-2.562,0.165-3.857,0.494c-4.08,1.036-7.022,3.391-9.124,7.142c-2.295,3.638-2.962,7.346-1.925,11.427
		c1.034,4.08,3.467,7.322,7.257,9.578C153.139,73.551,155.576,74.256,158.147,74.256 M223.223,80.724
		c1.316,0,2.66-0.177,4.033-0.526c4.08-1.036,7.359-3.316,9.501-6.916c2.143-3.598,2.581-7.568,1.546-11.649
		c-1.036-4.08-3.277-7.214-6.878-9.355c-2.445-1.454-5.078-2.194-7.796-2.194c-1.282,0-2.583,0.165-3.892,0.497
		c-4.082,1.036-7.174,3.43-9.317,7.029c-0.41,0.909-0.861,1.668-1.159,2.388c-0.079,0.34-0.15,0.68-0.263,0.871
		c-0.938,2.648-1.041,5.409-0.312,8.283c1.036,4.08,3.468,7.321,7.062,9.463C218.141,80.035,220.627,80.724,223.223,80.724
		 M158.293,29.321L158.293,29.321c-2.391,0-4.83,0.312-7.253,0.927c-7.548,1.916-13.529,6.505-17.778,13.642
		c-4.248,7.137-5.43,14.584-3.514,22.134c1.968,7.752,6.584,13.835,13.721,18.082c4.779,2.844,9.784,4.286,14.874,4.286
		c2.366,0,4.795-0.312,7.22-0.928c7.853-1.993,13.949-6.558,18.121-13.566c1.877-3.151,3.167-6.53,3.846-10.07l6.648,0.863
		c-0.143,2.7,0.117,5.315,0.784,7.944c1.967,7.75,6.582,13.833,13.718,18.08c4.646,2.764,9.568,4.166,14.633,4.166
		c2.424,0,4.922-0.322,7.426-0.958c7.792-1.978,13.896-6.483,18.144-13.392l0.015-0.024l0.015-0.025
		c4.045-7.025,5.094-14.54,3.116-22.333c-1.969-7.755-6.457-13.764-13.34-17.86c-4.86-2.893-9.969-4.359-15.182-4.359
		c-2.391,0-4.831,0.312-7.254,0.927c-7.314,1.857-13.077,5.958-17.146,12.199l-13.438-1.908c-2.457-5.53-6.65-10.169-12.191-13.465
		C168.612,30.789,163.503,29.321,158.293,29.321L158.293,29.321L158.293,29.321z M158.147,72.256c-2.204,0-4.295-0.607-6.393-1.855
		c-3.301-1.965-5.435-4.775-6.341-8.351c-0.891-3.506-0.357-6.641,1.678-9.868l0.028-0.044l0.025-0.045
		c1.863-3.327,4.364-5.291,7.871-6.181c1.129-0.287,2.262-0.432,3.365-0.432c2.391,0,4.746,0.681,7.002,2.023
		c3.134,1.865,5.016,4.399,5.923,7.973l0.142,0.566l0.045,0.18l0.072,0.277c0.621,3.015,0.109,6.055-1.562,9.29
		c-1.96,3.07-4.791,5.093-8.415,6.013C160.399,72.103,159.242,72.256,158.147,72.256L158.147,72.256z M212.193,58.542
		c1.912-3.165,4.542-5.135,8.036-6.022c1.138-0.289,2.282-0.436,3.399-0.436c2.361,0,4.64,0.644,6.773,1.913
		c3.089,1.838,5.039,4.497,5.962,8.129c0.934,3.679,0.487,7.089-1.326,10.133c-1.813,3.049-4.598,5.067-8.274,6.001
		c-1.213,0.308-2.404,0.464-3.541,0.464c-2.271,0-4.381-0.599-6.452-1.829c-3.169-1.888-5.237-4.659-6.146-8.236
		c-0.625-2.463-0.555-4.756,0.218-7.005c0.161-0.345,0.25-0.704,0.326-1.033c0.12-0.27,0.273-0.569,0.446-0.907
		C211.795,59.364,211.996,58.971,212.193,58.542L212.193,58.542z"/>
</g>
<path class="introicon_elements" d="M227.587,141.075c-0.762-1.093-1.745-1.807-3.223-1.919c-29.436-5.071-55.727,1.602-79.18,20.1
	c-0.942,0.725-1.546,1.519-1.729,2.692c-0.113,0.188-0.074,0.34-0.036,0.492c-0.26,1.514,0.047,2.722,0.92,3.623
	c0.76,1.098,1.897,1.773,3.37,1.878c1.327,0.149,2.536-0.157,3.476-0.881c21.154-16.787,45.029-22.846,71.628-18.181
	c1.175,0.187,2.38-0.12,3.627-0.921c1.094-0.759,1.771-1.894,2.069-3.259c0.221-1.018-0.011-1.927-0.43-2.945
	C227.892,141.641,227.813,141.337,227.587,141.075L227.587,141.075z"/>
<path class="introicon_elements" d="M46.407,187.064c-0.075,0.339,0.002,0.643-0.074,0.985c-0.033,1.134,0.348,1.998,0.994,2.64
	c0.758,1.097,1.896,1.772,3.371,1.878c1.323,0.148,2.534-0.157,3.475-0.882c21.155-16.788,45.029-22.848,71.626-18.181
	c1.174,0.188,2.383-0.121,3.626-0.921c1.097-0.758,1.772-1.894,2.069-3.261c0.224-1.017-0.008-1.927-0.426-2.944
	c-0.189-0.113-0.266-0.416-0.493-0.679c-0.762-1.093-1.747-1.808-3.222-1.918c-14.112-2.371-27.572-2.169-40.456,0.942
	c-13.675,3.149-26.547,9.473-38.724,19.155c-0.945,0.726-1.545,1.519-1.73,2.692C46.33,186.761,46.369,186.913,46.407,187.064
	L46.407,187.064z"/>
<path fill="#55595C" d="M201.098,40.516l-7.44-29.315c-31.521-5.672-59.777,1.5-84.774,21.518l30.454,119.98
	c25.536-17.899,53.792-25.072,84.774-21.519l-8.401-33.092c-3.103-0.82-6.169-2.132-9.013-3.825
	c-8.185-5-13.465-11.861-15.689-20.625c-0.347-1.361-0.579-2.911-0.62-4.349c-0.863,2.312-1.915,4.509-3.157,6.593l0.04,0.151
	c-4.884,7.996-11.786,13.123-20.703,15.387c-8.763,2.224-17.125,0.971-24.933-3.804c-8.296-4.808-13.578-11.669-15.841-20.587
	c-2.225-8.763-0.969-17.127,3.958-24.971l0.225-0.378c4.547-8.071,11.298-13.164,20.058-15.387
	c8.919-2.264,17.469-0.896,25.652,4.106c5.497,3.268,9.822,7.638,12.868,13.301l8.623,1.027
	C198.384,43.135,199.625,41.694,201.098,40.516L201.098,40.516z"/>
<path fill="#55595C" d="M40.4,178.617l0.604-0.154c28.102-19.198,57.832-26.902,88.814-23.349L99.213,35.174
	c-33.333-5.213-63.1,2.343-89.46,22.707L40.4,178.617L40.4,178.617z M38.386,112.378c-0.762-1.095-0.916-2.341-0.583-3.556
	c0.261-1.511,0.937-2.648,2.184-3.444c18.971-12.698,39.826-17.991,62.708-15.917c1.176,0.182,2.313,0.858,3.259,2.063
	c0.874,0.907,1.181,2.114,1.034,3.44c-0.185,1.171-0.711,2.27-1.613,3.144c-1.208,0.949-2.376,1.407-3.553,1.222
	c-20.613-2.005-39.35,2.751-56.515,14.345c-1.092,0.761-2.341,0.915-3.552,0.581C40.246,113.996,39.105,113.32,38.386,112.378
	L38.386,112.378z M36.731,94.459c-1.511-0.26-2.649-0.933-3.37-1.878c-0.801-1.246-0.916-2.341-0.582-3.552
	c0.261-1.511,0.936-2.651,2.183-3.448C53.934,72.883,74.789,67.59,97.67,69.664c1.176,0.183,2.313,0.863,3.261,2.067
	c0.873,0.904,1.141,1.96,1.032,3.438c-0.183,1.175-0.71,2.27-1.613,3.144c-1.208,0.951-2.376,1.407-3.552,1.225
	c-20.613-2.008-39.35,2.748-56.514,14.345C39.191,94.64,37.943,94.796,36.731,94.459L36.731,94.459z M43.487,132.472
	c-0.8-1.242-0.954-2.491-0.621-3.701c0.299-1.361,0.976-2.498,2.222-3.299c18.971-12.697,39.825-17.991,62.708-15.916
	c1.176,0.185,2.313,0.861,3.222,1.915c0.873,0.903,1.18,2.115,1.071,3.588c-0.183,1.175-0.709,2.273-1.613,3.144
	c-1.207,0.954-2.414,1.26-3.59,1.074c-20.613-2.009-39.351,2.747-56.515,14.346c-1.092,0.76-2.303,1.067-3.514,0.728
	C45.347,134.095,44.208,133.418,43.487,132.472L43.487,132.472z"/>
</svg>
